# xmcd
#
# Track frame offsets: 
#        150
#        11735
#        28177
#        37897
#        50665
#        72792
#        88480
#        104517
#        118070
#        136957
#        157717
#
# Disc length: 2276 seconds
#
# Revision: 0
# Processed by: cddbd v1.5.2PL0 Copyright (c) Steve Scherf et al.
# Submitted via: ExactAudioCopy v0.99pb4
#
DISCID=9208e20b
DTITLE=Wooden Wand - James And The Quiet
DYEAR=2007
DGENRE=Rock
TTITLE0=The Pushers
TTITLE1=In A Bucket
TTITLE2=Spitting At The Cameras
TTITLE3=Delia
TTITLE4=We Must Also Love The Thieves
TTITLE5=The Invisible Children
TTITLE6=Blood
TTITLE7=Blessed Damnation
TTITLE8=Future Dream
TTITLE9=James and The Quiet
TTITLE10=Wired To The Sky
EXTD=
EXTT0=
EXTT1=
EXTT2=
EXTT3=
EXTT4=
EXTT5=
EXTT6=
EXTT7=
EXTT8=
EXTT9=
EXTT10=
PLAYORDER=
